<?xml version="1.0" encoding="utf-8"?>
<!-- Generator: Adobe Illustrator 26.0.1, SVG Export Plug-In . SVG Version: 6.00 Build 0)  -->
<svg version="1.1" id="Capa_1" xmlns="http://www.w3.org/2000/svg" xmlns:xlink="http://www.w3.org/1999/xlink" x="0px" y="0px"
	 viewBox="0 0 2753.36 582.18" style="enable-background:new 0 0 2753.36 582.18;" xml:space="preserve">
<style type="text/css">
	.st0{fill:url(#SVGID_1_);}
	.st1{fill:url(#SVGID_00000047761171081486702190000010421100684534091146_);}
	.st2{fill:url(#SVGID_00000067955293723942824190000014712399575235706247_);}
	.st3{fill:url(#SVGID_00000078729997063514395870000004848548665820739259_);}
	.st4{fill:url(#SVGID_00000012465437308347623260000009757099837822337920_);}
	.st5{opacity:0.5;}
	.st6{fill:#FFFFFF;}
	.st7{fill:#0E364A;}
	.st8{opacity:0.5;fill:#0E364A;}
	.st9{fill:#99560E;}
	.st10{fill:#E2E2E2;}
	.st11{fill:url(#SVGID_00000125598497453501894930000007742521360163349124_);}
	.st12{fill:url(#SVGID_00000178923982542980204960000013954203173301994928_);}
	.st13{fill:url(#SVGID_00000148625202980431433790000013973065325904775315_);}
	.st14{fill:#EE8118;}
	.st15{fill:url(#SVGID_00000076580481059529776830000006911459849558708641_);}
	.st16{fill:url(#SVGID_00000013151230211995466560000008168031116333266332_);}
	.st17{fill:url(#SVGID_00000115474989249357774290000001676897222517161356_);}
	.st18{fill:url(#SVGID_00000171696802619189055190000015906483088265429898_);}
	.st19{fill:url(#SVGID_00000139977042818311321830000017669152892806485668_);}
	.st20{fill:url(#SVGID_00000059303387688988554230000002541303247463371929_);}
	.st21{fill:url(#SVGID_00000072253634409644655620000007547666424149228419_);}
	.st22{fill:none;stroke:#DADADA;stroke-miterlimit:10;}
	.st23{opacity:0.8;}
</style>
<g>
	<path class="st14" d="M264.48,130.69h54.45v300h89.59v50H264.48V130.69z"/>
	<path class="st14" d="M428.82,397.69v-184c0-56,29.2-88,82.66-88c53.46,0,82.66,32,82.66,88v184c0,56-29.2,88-82.66,88
		C458.02,485.69,428.82,453.69,428.82,397.69z M539.7,401.19v-191c0-25-10.89-34.5-28.21-34.5s-28.21,9.5-28.21,34.5v191
		c0,25,10.89,34.5,28.21,34.5S539.7,426.19,539.7,401.19z"/>
	<path class="st14" d="M626.81,397.69v-184c0-56,27.72-88,81.18-88s81.18,32,81.18,88v30h-51.48v-33.5c0-25-10.89-34.5-28.21-34.5
		s-28.21,9.5-28.21,34.5v191.5c0,25,10.89,34,28.21,34s28.21-9,28.21-34v-68.5h-27.23v-50h78.7v114.5c0,56-27.72,88-81.18,88
		S626.81,453.69,626.81,397.69z"/>
	<path class="st14" d="M820.35,397.69v-184c0-56,29.2-88,82.66-88s82.66,32,82.66,88v184c0,56-29.2,88-82.66,88
		S820.35,453.69,820.35,397.69z M931.23,401.19v-191c0-25-10.89-34.5-28.21-34.5s-28.21,9.5-28.21,34.5v191
		c0,25,10.89,34.5,28.21,34.5S931.23,426.19,931.23,401.19z"/>
	<path class="st14" d="M1101.5,130.69H1250v50h-94.05v92.5h74.74v50h-74.74v107.5H1250v50h-148.5V130.69z"/>
	<path class="st14" d="M1281.18,130.69h77.71l34.65,250.5h0.99l34.65-250.5h77.71v350h-51.48v-265h-0.99l-39.6,265h-45.54l-39.6-265
		h-0.99v265h-47.52V130.69z"/>
	<path class="st14" d="M1547.49,130.69h80.19c54.45,0,81.18,30.5,81.18,86.5v34.5c0,56-26.73,86.5-81.18,86.5h-25.74v142.5h-54.45
		V130.69z M1627.68,288.19c17.32,0,26.73-8,26.73-33v-41.5c0-25-9.41-33-26.73-33h-25.74v107.5H1627.68z"/>
	<path class="st14" d="M1738.55,130.69h80.68c56.43,0,80.68,26.5,80.68,80.5v21.5c0,36-11.38,59-35.64,69v1
		c27.22,8.5,36.13,34.5,36.13,74v61.5c0,17,0.5,29.5,5.94,42.5h-55.44c-2.97-9-4.95-14.5-4.95-43v-64c0-32.5-9.41-43-34.15-43H1793
		v150h-54.45V130.69z M1812.8,280.69c20.29,0,32.67-9,32.67-37v-27c0-25-8.42-36-27.72-36H1793v100H1812.8z"/>
	<path class="st14" d="M1938.04,130.69h148.5v50h-94.05v92.5h74.74v50h-74.74v107.5h94.05v50h-148.5V130.69z"/>
	<path class="st14" d="M2109.3,397.69v-20h51.48v24c0,25,10.89,34,28.21,34s28.21-9,28.21-35c0-29-10.89-47.5-46.53-79
		c-45.54-40.5-60.39-69-60.39-109c0-55,28.21-87,81.18-87s79.2,32,79.2,88v14.5h-51.48v-18c0-25-9.9-34.5-27.22-34.5
		c-17.33,0-27.22,9.5-27.22,33.5c0,25.5,11.38,44,47.02,75.5c45.54,40.5,59.89,68.5,59.89,112c0,57-28.71,89-82.17,89
		S2109.3,453.69,2109.3,397.69z"/>
	<path class="st14" d="M2343.43,130.69h73.75l56.43,350h-54.45l-9.9-69.5v1h-61.87l-9.9,68.5h-50.49L2343.43,130.69z
		 M2402.83,364.69l-24.25-173h-0.99l-23.76,173H2402.83z"/>
</g>
</svg>
